<?xml version="1.0" encoding="iso-8859-1"?>
<!-- Generator: Adobe Illustrator 19.0.0, SVG Export Plug-In . SVG Version: 6.00 Build 0)  -->
<svg version="1.1" id="Layer_1" xmlns="http://www.w3.org/2000/svg" xmlns:xlink="http://www.w3.org/1999/xlink" x="0px" y="0px"
	 viewBox="0 0 512 512" style="enable-background:new 0 0 512 512;" xml:space="preserve">
<g>
	<g>
		<g>
			<path d="M334.343,371.928c16.538-11.209,30.773-26.139,41.163-43.176l-13.543-8.259c-6.748,11.064-15.329,21.119-25.191,29.616
				c-3.734-28.864-16.723-48.109-27.829-59.663c-6.905-7.183-13.815-12.228-19.15-15.541c7.063-8.084,11.084-18.491,11.084-29.46
				v-70.487l-0.838-1.674c-0.52-1.041-13.104-25.496-44.039-25.496c-30.937,0-43.52,24.454-44.04,25.496l-0.838,1.674v70.487
				c0,11.016,3.938,21.368,11.098,29.452c-5.336,3.313-12.253,8.36-19.164,15.55c-11.101,11.548-24.083,30.783-27.824,59.681
				c-27.303-23.457-43.254-57.702-43.254-94.127h-15.862c0,46.475,23.006,89.812,61.551,115.936
				c23.21,15.666,50.296,23.947,78.331,23.947C284.034,395.883,311.121,387.602,334.343,371.928z M256,163.648
				c17.514,0,26.393,11.278,29.015,15.323v37.136c-15.589-1.218-20.467-5.944-21.083-8.093V196.47l-36.947,15.834v-33.337h-0.001
				C229.591,174.935,238.462,163.648,256,163.648z M226.984,229.561l24.997-10.712c4.365,5.705,13.586,11.844,33.034,13.158v13.438
				c0,9.673-4.842,18.695-12.962,24.138c-4.745,3.19-10.295,4.877-16.053,4.877s-11.308-1.687-16.001-4.843
				c-1.568-1.073-3.113-2.356-4.509-3.751c-5.486-5.399-8.506-12.652-8.506-20.422V229.561z M235.708,285.454
				c3.898,1.991,8.057,3.39,12.362,4.161v35h15.862v-34.999c4.301-0.77,8.454-2.166,12.346-4.151
				c8.918,4.486,43.192,24.982,45.557,75.675c-19.751,12.365-42.416,18.884-65.832,18.884c-23.419,0-46.089-6.521-65.832-18.882
				C192.549,310.124,226.625,289.941,235.708,285.454z"/>
			<path d="M138.505,180.095l13.314,8.621C174.825,153.19,213.771,131.98,256,131.98c68.385,0,124.021,55.635,124.021,124.021
				h15.862c0-77.131-62.751-139.882-139.882-139.882C208.37,116.118,164.446,140.034,138.505,180.095z"/>
			<rect x="245.443" y="337.8" width="21.113" height="15.862"/>
			<path d="M467.756,200.567c-4.994-19.22-12.653-37.688-22.832-55.049l31.294-31.402l-78.333-78.333l-31.403,31.293
				c-17.36-10.178-35.828-17.838-55.048-22.83V0.001H200.567v44.244c-19.22,4.993-37.688,12.652-55.049,22.83l-31.402-31.293
				l-78.333,78.333l31.293,31.402c-10.178,17.36-17.837,35.828-22.83,55.049H0v110.866h44.245
				c4.969,19.097,12.628,37.558,22.832,55.03l-31.301,31.301l78.335,78.458l31.406-31.297c17.36,10.178,35.828,17.838,55.049,22.83
				v44.244h110.867v-44.244c19.22-4.993,37.688-12.652,55.048-22.83l31.407,31.297l78.334-78.458l-31.302-31.301
				c10.204-17.472,17.864-35.933,22.833-55.03H512V200.567H467.756z M496.141,295.573h-40.935l-1.41,6.165
				c-4.925,21.57-13.541,42.349-25.606,61.76l-3.324,5.344l28.932,28.932l-55.94,56.027l-29.039-28.938l-5.34,3.338
				c-19.234,12.021-40.008,20.633-61.743,25.594l-6.166,1.407v40.935h-79.144v-40.935l-6.166-1.407
				c-21.736-4.961-42.509-13.573-61.744-25.594l-5.341-3.338l-29.038,28.938l-55.94-56.027l28.932-28.931l-3.323-5.345
				c-12.065-19.41-20.68-40.189-25.605-61.76l-1.409-6.166H15.862v-79.143h40.935l1.409-6.166
				c4.963-21.737,13.573-42.51,25.594-61.744l3.338-5.34l-28.942-29.044l55.941-55.941l29.043,28.942l5.341-3.338
				c19.234-12.021,40.007-20.633,61.744-25.594l6.166-1.409V15.862h79.144v40.935l6.166,1.409
				c21.735,4.961,42.508,13.573,61.743,25.594l5.34,3.338l29.044-28.942l55.941,55.941l-28.942,29.044l3.337,5.34
				c12.022,19.234,20.634,40.007,25.596,61.744l1.407,6.166h40.935V295.573z"/>
			<rect x="245.443" y="36.947" width="21.113" height="15.862"/>
			<rect x="245.443" y="459.194" width="21.113" height="15.862"/>
			<rect x="34.321" y="248.065" width="21.113" height="15.862"/>
			<rect x="456.571" y="248.065" width="21.113" height="15.862"/>
			<rect x="393.23" y="100.288" width="21.113" height="15.862"/>
			<rect x="393.23" y="395.853" width="21.113" height="15.862"/>
			<rect x="97.655" y="100.288" width="21.112" height="15.862"/>
			<rect x="97.655" y="395.853" width="21.112" height="15.862"/>
			<path d="M256,89.755V73.893c-100.415,0-182.107,81.693-182.107,182.107h15.862C89.755,164.333,164.332,89.755,256,89.755z"/>
			<path d="M256,422.246v15.862c100.413,0,182.106-81.693,182.106-182.107h-15.862C422.245,347.669,347.667,422.246,256,422.246z"/>
		</g>
	</g>
</g>
<g>
</g>
<g>
</g>
<g>
</g>
<g>
</g>
<g>
</g>
<g>
</g>
<g>
</g>
<g>
</g>
<g>
</g>
<g>
</g>
<g>
</g>
<g>
</g>
<g>
</g>
<g>
</g>
<g>
</g>
</svg>
