<svg id="Capa_1" enable-background="new 0 0 512.007 512.007" height="512" viewBox="0 0 512.007 512.007" width="512" xmlns="http://www.w3.org/2000/svg"><g><path d="m406.004 120.007h-37.5v-33.392c0-10.017-3.9-19.434-10.983-26.516l-11.837-11.837c1.421-2.985 2.195-6.267 2.195-9.68 0-6.021-2.333-11.672-6.572-15.91l-16.093-16.093c-8.772-8.771-23.047-8.771-31.819 0-8.772 8.773-8.772 23.048 0 31.821l16.092 16.092c4.238 4.237 9.888 6.571 15.91 6.571 3.413 0 6.695-.774 9.68-2.195l11.837 11.838c4.25 4.249 6.59 9.899 6.59 15.909v33.393h-41.406c-12.124-18.076-32.74-30-56.094-30s-43.97 11.924-56.094 30h-41.406v-33.393c0-6.01 2.34-11.66 6.59-15.909l11.837-11.838c2.985 1.421 6.267 2.195 9.68 2.195 6.022 0 11.672-2.334 15.91-6.571l16.093-16.093c8.772-8.772 8.772-23.047 0-31.819-8.773-8.772-23.047-8.772-31.82-.001l-16.094 16.093c-4.238 4.237-6.571 9.888-6.571 15.909 0 3.413.774 6.696 2.195 9.68l-11.837 11.836c-7.083 7.083-10.983 16.5-10.983 26.517v33.393h-37.5c-4.142 0-7.5 3.357-7.5 7.5v120c0 1.989.79 3.896 2.197 5.304l28.216 28.216 14.227 186.845c-16.834 3.685-29.473 18.711-29.473 36.635 0 4.143 3.358 7.5 7.5 7.5h270c4.142 0 7.5-3.357 7.5-7.5 0-17.923-12.641-32.94-29.474-36.626l14.255-187.215 27.855-27.855c1.407-1.407 2.197-3.314 2.197-5.304v-120c0-4.142-3.358-7.5-7.5-7.5zm-75.304-76.122c-1.405 1.404-3.288 2.178-5.303 2.178s-3.898-.773-5.304-2.179l-16.092-16.091c-2.924-2.925-2.924-7.684 0-10.608 2.924-2.922 7.683-2.922 10.606 0l16.093 16.093c1.405 1.405 2.179 3.289 2.179 5.304s-.774 3.898-2.179 5.303zm-149.393-10.607 16.092-16.092c1.462-1.462 3.383-2.193 5.304-2.193 1.92 0 3.841.731 5.303 2.192 2.924 2.925 2.924 7.684 0 10.607l-16.092 16.092c-1.405 1.405-3.289 2.179-5.304 2.179s-3.898-.773-5.303-2.179c-1.405-1.404-2.178-3.287-2.178-5.303 0-2.014.773-3.898 2.178-5.303zm74.697 71.729c28.949 0 52.5 23.552 52.5 52.5s-23.551 52.5-52.5 52.5-52.5-23.552-52.5-52.5 23.551-52.5 52.5-52.5zm126.381 392h-252.43c3.095-8.73 11.437-15 21.215-15 2.088 0 4.082-.87 5.501-2.402 1.419-1.531 2.136-3.585 1.978-5.667l-14.386-188.931h223.814l-13.858 182h-173.048c-4.142 0-7.5 3.357-7.5 7.5s3.358 7.5 7.5 7.5h180c9.778 0 18.119 6.27 21.214 15zm-9.488-227h-233.787l-15-15h263.787zm25.607-30h-285v-105h78.87c-2.498 7.042-3.87 14.612-3.87 22.5 0 37.22 30.28 67.5 67.5 67.5s67.5-30.28 67.5-67.5c0-7.888-1.373-15.458-3.87-22.5h78.87z"/><path d="m256.004 195.007c20.678 0 37.5-16.822 37.5-37.5s-16.822-37.5-37.5-37.5-37.5 16.822-37.5 37.5 16.822 37.5 37.5 37.5zm0-60c12.407 0 22.5 10.094 22.5 22.5s-10.093 22.5-22.5 22.5-22.5-10.094-22.5-22.5 10.093-22.5 22.5-22.5z"/></g></svg>